 <svg version="1.0" xmlns="http://www.w3.org/2000/svg"
        width="100.000000pt" height="50.000000pt" viewBox="0 0 300.000000 171.000000"
        preserveAspectRatio="xMidYMid meet">
       <g transform="translate(0.000000,171.000000) scale(0.100000,-0.100000)"
       fill="#000000" stroke="none">
       <path d="M1236 1620 c-106 -27 -388 -186 -526 -297 -119 -95 -314 -292 -388
       -392 -81 -108 -126 -199 -157 -314 -30 -109 -32 -212 -8 -283 20 -60 103 -146
       183 -189 48 -26 64 -30 130 -29 150 3 393 85 747 254 l148 71 -55 -56 c-65
       -66 -171 -153 -220 -181 -115 -65 -206 -80 -225 -36 -13 29 -23 28 -31 -3 -9
       -38 11 -55 67 -55 130 0 344 138 440 284 31 48 55 72 93 92 79 43 38 39 -65
       -7 -105 -46 -265 -104 -319 -114 -33 -7 -32 -5 25 35 33 23 92 75 132 116 86
       88 99 125 65 187 l-22 39 33 -6 c45 -9 106 -52 118 -84 6 -15 8 -54 4 -87 -5
       -55 -5 -58 9 -41 9 11 19 34 22 53 22 116 -65 187 -261 213 -96 13 -308 13
       -300 0 3 -5 31 -10 61 -10 128 0 304 -56 325 -104 18 -39 -23 -97 -159 -223
       l-119 -111 -99 -18 c-63 -12 -144 -19 -225 -19 -120 0 -128 1 -184 30 -78 41
       -98 76 -92 170 5 89 53 194 160 353 150 221 302 385 464 501 156 112 308 169
       342 128 16 -20 -10 -81 -68 -163 -80 -111 -63 -154 60 -154 60 0 111 7 199 27
       l25 5 -23 9 c-36 14 -44 52 -37 180 8 140 -4 178 -67 210 -45 23 -146 32 -202
       19z m172 -50 c24 -11 46 -29 51 -42 5 -13 8 -88 7 -166 l-1 -142 -30 -6 c-16
       -3 -57 -4 -90 -2 -53 3 -60 6 -63 24 -2 13 17 52 48 98 65 94 74 140 36 176
       -111 103 -484 -142 -757 -495 -62 -80 -172 -248 -202 -310 -36 -72 -67 -172
       -67 -217 0 -86 58 -164 149 -199 46 -18 76 -22 171 -21 101 1 250 19 318 38
       12 3 22 4 22 1 0 -9 -61 -37 -80 -37 -10 0 -20 -7 -24 -15 -3 -9 -18 -15 -40
       -15 -20 0 -53 -6 -73 -14 -118 -45 -253 -76 -326 -76 -48 0 -147 50 -198 101
       -19 19 -46 58 -59 85 -57 117 -12 322 116 525 92 147 402 443 565 540 57 34
       74 43 180 102 150 84 262 106 347 67z"/>
       <path d="M1107 1320 c-355 -230 -530 -429 -503 -572 14 -78 117 -170 244 -219
       118 -45 279 -23 309 43 23 50 -17 89 -132 131 -162 58 -225 100 -225 148 0 70
       201 321 404 505 33 30 55 54 50 54 -5 -1 -71 -41 -147 -90z m-160 -179 c-44
       -49 -149 -205 -166 -248 -14 -33 -7 -93 10 -93 6 0 7 -4 4 -10 -3 -5 1 -10 9
       -10 9 0 16 -4 16 -9 0 -11 122 -75 175 -91 22 -7 62 -24 88 -38 36 -19 47 -31
       45 -46 -9 -58 -168 -78 -276 -35 -139 56 -222 139 -222 224 0 32 38 111 83
       172 52 70 251 242 265 229 3 -3 -11 -23 -31 -45z"/>
       <path d="M1624 1238 c-4 -6 0 -16 9 -23 21 -15 22 -26 2 -19 -8 4 -15 1 -15
       -6 0 -6 10 -10 22 -8 27 4 38 38 13 38 -9 0 -13 5 -10 10 4 6 11 8 16 5 5 -4
       9 -1 9 4 0 15 -37 14 -46 -1z"/>
       <path d="M1730 1221 c0 -17 5 -33 10 -36 6 -3 10 3 10 14 0 28 18 27 23 -1 4
       -20 4 -19 6 5 1 18 -4 27 -14 27 -8 0 -15 5 -15 10 0 6 -4 10 -10 10 -5 0 -10
       -13 -10 -29z"/>
       <path d="M1920 1221 c0 -17 5 -33 10 -36 6 -4 10 8 10 29 0 20 -4 36 -10 36
       -5 0 -10 -13 -10 -29z"/>
       <path d="M2049 1243 c0 -5 -2 -18 -3 -31 -2 -13 1 -25 6 -28 7 -4 10 17 7 42
       0 4 5 11 13 15 10 7 9 9 -4 9 -10 0 -18 -3 -19 -7z"/>
       <path d="M1683 1214 c-3 -9 0 -20 8 -25 22 -14 33 -10 18 7 -10 13 -10 17 2
       25 11 7 11 9 -4 9 -10 0 -20 -7 -24 -16z"/>
       <path d="M1795 1220 c-10 -17 20 -44 40 -36 9 3 15 14 13 23 -4 21 -43 30 -53
       13z"/>
       <path d="M1863 1214 c-3 -8 -1 -20 5 -26 16 -16 42 -2 42 22 0 24 -38 28 -47
       4z"/>
       <path d="M1975 1220 c-10 -17 20 -44 40 -36 9 3 15 14 13 23 -4 21 -43 30 -53
       13z"/>
       <path d="M1496 986 c-66 -55 -102 -74 -114 -61 -4 4 5 17 20 28 19 16 25 26
       19 36 -8 12 -19 8 -60 -19 -54 -34 -76 -37 -41 -5 52 47 4 47 -61 0 -51 -37
       -94 -50 -46 -14 15 11 27 25 27 30 0 18 -26 9 -58 -21 -43 -39 -51 -38 -47 5
       3 31 1 35 -21 35 -67 0 -125 -50 -104 -90 13 -24 40 -25 100 -4 40 14 45 14
       56 0 16 -22 20 -21 70 20 44 37 72 44 34 9 -23 -21 -26 -45 -7 -45 7 0 32 14
       55 31 38 28 58 29 31 2 -7 -7 -9 -19 -6 -28 6 -14 10 -14 42 -1 19 8 51 27 70
       42 46 34 44 26 -5 -31 -37 -43 -51 -75 -32 -75 4 0 19 14 33 32 23 28 32 31
       73 30 27 -1 60 5 78 14 28 15 32 15 40 0 12 -22 30 -20 63 6 l27 21 -6 -21
       c-11 -32 17 -38 59 -13 44 25 47 26 43 4 -4 -26 27 -27 72 -4 l40 21 21 -21
       c14 -14 27 -18 42 -13 29 8 104 52 112 64 3 6 15 10 26 10 19 0 19 0 -1 -20
       -24 -24 -25 -39 -4 -47 17 -6 94 25 94 39 0 11 -17 10 -25 -2 -8 -13 -45 -13
       -45 0 0 5 11 17 25 26 36 23 26 38 -26 40 -46 1 -81 -18 -73 -40 5 -14 -56
       -46 -87 -46 -29 0 -18 22 15 31 29 8 66 36 66 51 0 4 -15 8 -33 8 -33 0 -73
       -21 -94 -51 -17 -23 -72 -44 -84 -32 -15 15 27 61 59 65 22 2 27 8 27 31 1 30
       -15 35 -39 12 -8 -8 -23 -15 -34 -15 -11 0 -25 -7 -32 -15 -10 -12 -9 -15 5
       -15 26 0 2 -26 -46 -51 -48 -24 -59 -8 -19 27 30 28 38 44 20 44 -5 0 -35 -18
       -66 -40 -56 -39 -84 -49 -84 -31 0 5 16 18 35 30 19 11 35 25 35 31 0 18 -42
       1 -75 -30 -34 -31 -67 -50 -87 -50 -7 0 2 13 21 29 24 19 32 33 28 45 -6 15
       -10 15 -43 1 -47 -20 -54 -13 -15 16 27 20 33 39 12 39 -5 0 -38 -24 -75 -54z
       m-404 -28 c-7 -7 -12 -20 -12 -30 0 -13 -8 -18 -25 -18 -32 0 -32 13 1 39 29
       23 56 29 36 9z m462 -23 c-18 -14 -54 -20 -54 -10 0 3 15 14 33 25 35 22 52 9
       21 -15z"/>
       <path d="M1805 747 c-13 -10 -15 -16 -6 -21 17 -11 41 0 41 19 0 19 -11 19
       -35 2z"/>
       <path d="M1633 705 c-42 -19 -53 -29 -53 -48 0 -47 44 -61 102 -31 28 15 32
       15 40 0 12 -21 47 -20 77 0 22 16 24 16 33 0 12 -21 60 -21 99 0 28 14 32 14
       44 -2 12 -16 16 -15 55 19 44 37 67 43 37 9 -10 -10 -17 -24 -17 -30 0 -19 45
       -14 73 8 14 11 27 20 30 20 3 0 7 -9 10 -20 7 -26 57 -27 99 -2 28 16 30 16
       39 0 13 -24 66 -23 107 2 45 28 40 43 -6 17 -37 -20 -72 -19 -72 3 0 5 8 10
       18 10 22 0 82 36 82 50 0 15 -57 12 -88 -4 -15 -8 -35 -24 -44 -35 -23 -28
       -95 -49 -111 -32 -9 10 -8 15 8 27 11 8 28 13 38 10 24 -6 66 29 51 43 -15 16
       -85 -11 -132 -49 -37 -30 -62 -38 -62 -20 0 5 11 17 25 26 27 18 34 44 11 44
       -8 0 -37 -16 -66 -35 -64 -43 -72 -44 -35 -5 42 44 5 40 -47 -4 -44 -38 -94
       -54 -111 -37 -7 7 -5 12 9 17 63 22 84 35 84 48 0 11 -10 16 -34 16 -26 0 -46
       -10 -81 -40 -27 -23 -57 -40 -71 -40 -32 0 -30 8 9 41 l32 28 -26 1 c-15 0
       -35 -10 -49 -25 -32 -34 -107 -62 -123 -46 -9 10 -7 17 12 32 19 16 26 17 32
       7 6 -10 13 -8 30 8 12 12 18 27 15 33 -10 15 -14 14 -73 -14z"/>
       <path d="M470 439 c0 -58 14 -79 54 -79 39 0 46 12 46 77 0 61 -24 52 -28 -11
       -3 -38 -6 -47 -20 -44 -13 2 -18 16 -20 51 -2 33 -7 47 -18 47 -10 0 -14 -12
       -14 -41z"/>
       <path d="M607 474 c-4 -4 -7 -31 -7 -61 0 -39 4 -53 14 -53 10 0 16 13 18 38
       l4 37 17 -37 c12 -26 24 -38 38 -38 18 0 20 5 17 57 -4 69 -28 88 -28 21 l0
       -43 -23 39 c-22 40 -38 52 -50 40z"/>
       <path d="M745 466 c-25 -18 -13 -44 25 -57 37 -13 28 -33 -11 -25 -22 4 -29 2
       -29 -10 0 -12 10 -14 43 -12 38 3 42 6 45 31 3 23 -1 28 -28 33 -37 8 -34 30
       4 26 28 -3 36 12 10 22 -24 9 -38 7 -59 -8z"/>
       <path d="M861 425 c-25 -67 -25 -65 -6 -65 8 0 15 5 15 10 0 6 11 10 24 10 14
       0 28 -4 31 -10 3 -5 12 -10 20 -10 10 0 8 13 -9 57 -30 78 -48 79 -75 8z"/>
       <path d="M2170 260 c0 -73 3 -83 25 -105 15 -16 36 -25 55 -25 19 0 40 9 55
       25 22 22 25 32 25 105 0 61 -3 81 -12 77 -9 -2 -13 -28 -13 -81 0 -65 -4 -80
       -20 -92 -24 -18 -46 -18 -70 0 -16 12 -20 29 -23 95 -2 45 -8 81 -13 81 -5 0
       -9 -36 -9 -80z"/>
       <path d="M2370 233 c0 -124 17 -132 22 -10 l3 78 58 -81 c32 -44 65 -80 73
       -80 11 0 14 19 14 100 0 60 -4 100 -10 100 -6 0 -10 -35 -10 -86 l0 -86 -62
       86 c-35 47 -69 86 -75 86 -10 0 -13 -28 -13 -107z"/>
       <path d="M2590 319 c-21 -37 -8 -62 43 -87 39 -18 48 -27 45 -45 -4 -28 -64
       -38 -74 -13 -7 18 -38 22 -32 4 2 -6 16 -21 31 -32 33 -24 75 -14 94 24 16 32
       0 57 -53 85 -42 22 -49 41 -22 59 13 8 23 8 38 -2 31 -19 45 -14 25 8 -25 27
       -81 27 -95 -1z"/>
       <path d="M2762 248 c-45 -100 -54 -138 -23 -101 10 11 28 23 41 25 30 4 39 28
       11 28 -26 0 -26 -3 2 59 l23 52 26 -55 27 -55 -22 -3 c-31 -4 -27 -22 6 -26
       15 -2 32 -12 38 -23 5 -11 14 -17 19 -14 12 7 -76 199 -93 203 -8 2 -29 -32
       -55 -90z"/>
       <path d="M2348 113 c105 -2 279 -2 385 0 105 1 19 2 -193 2 -212 0 -298 -1
       -192 -2z"/>
       <path d="M2230 81 c0 -5 59 -9 130 -9 72 -1 130 3 130 8 0 4 -58 9 -130 9 -71
       0 -130 -4 -130 -8z"/>
       <path d="M2610 80 c0 -6 27 -10 60 -10 33 0 60 4 60 10 0 6 -27 10 -60 10 -33
       0 -60 -4 -60 -10z"/>
       <path d="M2780 80 c0 -5 32 -9 70 -8 39 1 70 5 70 9 0 4 -31 8 -70 8 -38 0
       -70 -4 -70 -9z"/>
       </g>
</svg>